<?xml version="1.0" encoding="UTF-8"?>
<svg width="229px" height="168px" viewBox="0 0 229 168" version="1.1" xmlns="http://www.w3.org/2000/svg" xmlns:xlink="http://www.w3.org/1999/xlink">
    <!-- Generator: Sketch 50.2 (55047) - http://www.bohemiancoding.com/sketch -->
    <title>Artboard</title>
    <desc>Created with Sketch.</desc>
    <defs>
        <linearGradient x1="32.3576688%" y1="27.9081734%" x2="79.09064%" y2="66.6597477%" id="linearGradient-1">
            <stop stop-color="#000000" stop-opacity="0" offset="0%"></stop>
            <stop stop-color="#000000" stop-opacity="0.0974925439" offset="20.4970446%"></stop>
            <stop stop-color="#000000" stop-opacity="0.175134215" offset="36.0007432%"></stop>
            <stop stop-color="#000000" offset="100%"></stop>
        </linearGradient>
    </defs>
    <g id="Artboard" stroke="none" stroke-width="1" fill="none" fill-rule="evenodd">
        <g id="icon" transform="translate(7.000000, 9.000000)">
            <path d="M124.677317,18.3773684 C111.523725,7.01157895 94.2687315,0.0747368421 75.3678852,0.0747368421 C33.745274,0.0747368421 0,33.6378947 0,75.03 C0,97.4326316 9.89363911,117.519474 25.5530551,131.253684 C38.8415963,142.903684 56.265938,149.985263 75.3678852,149.985263 C90.4478128,149.985263 106.787268,145.708947 116.265474,137.974737 C129.81333,126.916842 215.453242,27.4747368 215.453242,27.4747368 C202.207038,14.7247368 184.171455,6.86684211 164.278334,6.86684211 C149.695867,6.86684211 136.110966,11.0957895 124.677317,18.3773684 Z" id="Fill-1" fill="#FFFFFF"></path>
            <path d="M75.438251,0.0774824071 C33.9336227,0.0774824071 0.0072842998,33.5950293 0.0072842998,75.0682783 C0.0072842998,97.5107637 10.142713,117.649425 25.757741,131.409685 L124.677545,18.3825578 C111.421394,6.90293119 94.2459428,0.0774824071 75.438251,0.0774824071 Z" id="Fill-4" fill="url(#linearGradient-1)" opacity="0.541100543"></path>
        </g>
    </g>
</svg>
